<?xml version="1.0" encoding="UTF-8" ?>
<!DOCTYPE svg PUBLIC "-//W3C//DTD SVG 1.1//EN" "http://www.w3.org/Graphics/SVG/1.1/DTD/svg11.dtd">
<svg width="419pt" height="419pt" viewBox="0 0 419 419" version="1.1" xmlns="http://www.w3.org/2000/svg">
<g id="#f9f5f2ff">
</g>
<g id="#2abdbdff">
<path fill="#2abdbd" opacity="1.00" d=" M 232.18 16.46 C 238.20 15.80 244.09 17.76 249.96 18.85 C 286.93 26.36 321.15 48.82 340.86 81.25 C 347.57 90.95 352.24 101.87 356.24 112.92 C 360.90 124.31 362.34 136.73 362.79 148.94 C 362.97 153.92 356.01 154.81 353.27 151.58 C 352.35 149.50 352.18 147.19 351.92 144.96 C 350.20 118.41 337.88 93.34 320.31 73.67 C 313.38 64.91 304.72 57.79 295.96 50.96 C 282.85 41.55 267.84 35.16 252.39 30.70 C 244.91 28.72 236.99 28.78 229.60 26.45 C 225.48 23.85 226.85 16.17 232.18 16.46 Z" />
<path fill="#2abdbd" opacity="1.00" d=" M 230.30 62.21 C 242.63 62.65 254.82 65.75 266.07 70.81 C 296.43 85.22 317.45 117.18 318.84 150.73 C 317.32 154.44 310.47 154.55 309.40 150.46 C 308.48 147.02 308.71 143.39 307.86 139.94 C 305.42 129.78 301.97 119.67 295.87 111.09 C 291.88 104.91 286.33 100.02 281.23 94.79 C 272.16 85.51 260.59 78.85 248.23 75.01 C 241.75 73.09 234.83 73.59 228.35 71.74 C 224.20 69.80 225.21 62.06 230.30 62.21 Z" />
</g>
<g id="#2bc3c3ff">
<path fill="#2bc3c3" opacity="1.00" d=" M 193.35 93.44 C 205.60 92.49 217.96 96.83 227.45 104.53 C 233.61 109.32 238.64 115.35 244.29 120.70 C 254.65 130.68 264.21 141.51 275.27 150.73 C 279.87 155.13 284.20 159.79 288.80 164.18 C 296.28 171.80 300.54 181.97 303.02 192.21 C 304.03 196.40 303.41 200.73 303.39 204.98 C 303.26 235.99 303.56 267.00 303.37 298.01 C 303.25 302.99 304.25 307.93 303.97 312.91 C 303.16 324.07 304.02 335.27 303.67 346.43 C 302.76 353.03 304.57 359.80 302.53 366.27 C 299.83 376.91 294.55 388.16 284.37 393.46 C 275.18 399.13 264.10 400.94 253.44 400.55 C 248.61 400.57 243.83 401.44 239.00 401.39 C 205.33 401.35 171.66 401.37 137.99 401.38 C 133.31 401.27 128.68 400.45 124.00 400.21 C 110.53 399.59 97.44 392.23 90.37 380.66 C 84.45 370.58 82.14 358.58 83.15 346.99 C 82.32 334.96 82.50 322.87 82.92 310.82 C 82.84 306.55 82.36 302.26 82.86 297.99 C 83.64 292.33 82.18 286.67 82.62 281.00 C 82.93 276.34 83.03 271.68 82.69 267.02 C 82.22 260.36 83.27 253.70 82.77 247.05 C 82.41 235.70 82.77 224.35 82.60 213.00 C 82.79 201.84 83.02 190.25 87.86 179.95 C 91.15 172.47 96.13 165.66 102.57 160.58 C 109.74 154.10 116.27 146.94 123.26 140.27 C 133.19 131.92 141.95 122.30 151.19 113.22 C 157.90 104.78 167.12 98.29 177.50 95.29 C 182.72 94.27 188.08 94.22 193.35 93.44 M 189.38 128.49 C 185.34 129.49 181.40 131.51 178.82 134.85 C 173.36 141.82 172.97 152.52 178.31 159.66 C 183.02 166.24 192.08 169.57 199.80 166.74 C 208.64 163.94 213.72 153.92 212.20 145.01 C 211.13 134.39 199.93 125.79 189.38 128.49 M 160.40 209.48 C 152.89 212.09 148.74 219.95 147.44 227.38 C 146.16 236.45 146.97 246.23 151.85 254.20 C 155.01 259.76 160.75 264.02 167.19 264.69 C 172.80 265.05 178.06 261.61 180.96 256.97 C 186.41 248.32 187.30 237.29 184.44 227.59 C 182.61 221.02 178.81 214.77 172.93 211.10 C 169.27 208.72 164.55 208.31 160.40 209.48 M 216.41 209.46 C 211.29 211.10 207.48 215.39 205.08 220.04 C 201.29 227.39 200.24 235.86 200.85 244.02 C 201.36 251.11 205.02 257.98 210.72 262.26 C 214.77 265.26 220.48 265.36 224.75 262.76 C 235.38 256.54 240.24 243.23 238.63 231.37 C 237.86 224.09 235.62 216.17 229.43 211.64 C 225.79 208.78 220.78 208.18 216.41 209.46 M 123.33 250.38 C 118.13 252.00 114.05 256.78 113.17 262.15 C 111.80 271.76 114.34 281.92 120.33 289.59 C 123.41 293.55 128.07 296.37 133.09 296.90 C 138.43 297.05 143.81 294.19 146.57 289.60 C 148.83 285.89 149.87 281.46 149.69 277.13 C 149.03 266.89 143.48 256.68 134.28 251.74 C 130.99 249.87 126.98 249.46 123.33 250.38 M 256.31 250.29 C 248.12 252.46 242.18 259.64 239.38 267.37 C 236.97 274.13 236.09 281.97 239.48 288.57 C 242.45 295.01 250.50 298.60 257.25 296.31 C 263.32 294.34 267.98 289.33 270.78 283.74 C 274.18 277.12 274.67 269.41 273.75 262.15 C 272.54 254.26 264.22 248.08 256.31 250.29 M 178.58 275.49 C 171.46 278.95 168.16 286.57 163.42 292.44 C 158.45 299.44 150.85 303.86 145.37 310.39 C 140.20 316.39 136.49 323.98 136.57 332.04 C 136.07 338.89 138.14 345.98 143.16 350.82 C 149.86 358.55 160.86 361.04 170.67 359.66 C 175.75 358.94 180.28 356.35 185.24 355.18 L 184.85 356.02 C 189.22 356.61 193.64 356.13 198.03 356.27 C 203.52 356.36 208.23 359.65 213.53 360.67 C 218.50 361.60 223.69 361.81 228.66 360.83 C 229.74 360.38 231.87 360.26 231.72 358.67 C 238.08 355.95 244.42 351.89 247.41 345.40 C 251.97 335.57 250.75 323.38 244.53 314.53 C 239.55 306.29 230.73 301.61 224.90 294.08 C 219.76 288.23 216.63 280.43 209.83 276.18 C 200.42 270.69 188.27 270.71 178.58 275.49 Z" />
</g>
<g id="#f7f3efff">
</g>
<g id="#1ebab8ff">
<path fill="#1ebab8" opacity="1.00" d=" M 185.24 355.18 C 189.59 354.11 194.15 353.97 198.59 354.55 C 204.48 355.31 209.70 358.45 215.52 359.49 C 220.90 360.54 226.43 359.85 231.72 358.67 C 231.87 360.26 229.74 360.38 228.66 360.83 C 223.69 361.81 218.50 361.60 213.53 360.67 C 208.23 359.65 203.52 356.36 198.03 356.27 C 193.64 356.13 189.22 356.61 184.85 356.02 L 185.24 355.18 Z" />
</g>
</svg>
